<?xml version="1.0" encoding="UTF-8" standalone="no"?>
<!-- Created with Inkscape (http://www.inkscape.org/) -->

<svg
   width="581.97131mm"
   height="152.22542mm"
   viewBox="0 0 581.97131 152.22542"
   version="1.1"
   id="svg1"
   xml:space="preserve"
   xmlns="http://www.w3.org/2000/svg"
   xmlns:svg="http://www.w3.org/2000/svg"><defs
     id="defs1" /><g
     id="layer1"
     transform="translate(182.9384,204.53281)"><path
       style="fill:#000000"
       d="m -36.490794,-52.535739 c -7.095209,-0.58207 -15.243073,-3.48539 -21.383995,-7.61975 -12.169983,-8.19342 -19.381802,-21.92521 -21.05661,-40.093231 -0.414387,-4.4952 -0.145722,-13.68217 0.527125,-18.02502 1.368894,-8.83543 4.047711,-16.01507 8.409678,-22.5392 5.132843,-7.67712 11.829986,-13.54164 19.671597,-17.22592 14.485201,-6.80569 34.304751,-6.60864 48.4377883,0.48158 14.0544867,7.05082 22.8767357,21.17687 25.2688417,40.46009 0.441635,3.5601 0.492597,11.78029 0.102928,16.60227 -1.524518,18.865261 -11.460116,34.676561 -26.7137251,42.511651 -6.043178,3.10411 -12.2426899,4.96429 -18.1859589,5.45675 -3.54034,0.29336 -11.448262,0.28852 -15.077669,-0.009 z m 12.150084,-7.95914 c 5.125312,-1.08634 9.456306,-5.96962 11.968512,-13.4947 2.5923489,-7.76515 3.6557499,-17.10365 3.6568349,-32.113331 10e-4,-14.5178 -1.087558,-23.71342 -3.7802239,-31.9321 -1.901435,-5.80365 -4.193303,-9.68578 -7.743503,-13.11648 -2.291294,-2.21418 -3.953551,-3.0807 -6.735443,-3.51115 -11.182495,-1.73028 -18.090487,10.56381 -19.406072,34.53682 -0.34221,6.23585 -0.170131,23.072181 0.277183,27.119791 0.422044,3.81895 1.561786,9.80555 2.568969,13.49375 1.871477,6.85315 4.419854,11.92803 7.631245,15.19697 3.438893,3.50052 7.203406,4.74437 11.562498,3.82043 z m 168.08959,7.94899 c -4.64385,-0.30439 -18.54793,-2.51791 -24.47396,-3.89623 l -1.98437,-0.46154 v -4.88817 c 0,-2.68848 0.16225,-19.65191 0.36055,-37.69649 0.28386,-25.828561 0.29633,-36.832971 0.0586,-51.726051 -0.43202,-27.06754 -0.60574,-29.18654 -2.76671,-33.74811 -1.66859,-3.52219 -2.84459,-4.33722 -8.02397,-5.56103 -1.56726,-0.37032 -3.05975,-0.86353 -3.31664,-1.09601 -0.36585,-0.33109 -0.46707,-0.84508 -0.46707,-2.37174 0,-1.76962 0.0548,-1.9724 0.59531,-2.20289 0.62362,-0.26592 15.01683,-3.09892 29.4349,-5.79363 14.69843,-2.74711 14.73237,-2.75245 15.00804,-2.36065 0.15022,0.21351 0.18173,9.64831 0.0809,24.22833 -0.11378,16.45446 -0.0796,23.87865 0.10993,23.87865 0.15128,0 1.79404,-0.64987 3.65058,-1.44416 6.4236,-2.74822 11.29985,-3.65951 19.64741,-3.67177 5.88882,-0.009 7.22672,0.18307 11.6729,1.67268 11.28391,3.78046 20.64224,13.53753 25.38058,26.462 1.25657,3.42747 2.54655,8.78512 2.93042,12.17084 0.46368,4.08963 0.46968,17.67178 0.009,20.5052 -2.42813,14.936181 -7.23416,25.177311 -15.74485,33.550611 -8.52451,8.38688 -20.91469,13.68349 -33.84985,14.47026 -4.88354,0.29703 -13.6198,0.28745 -18.31179,-0.0201 z m 15.32043,-8.70364 c 3.1334,-0.80139 4.99752,-1.91682 7.73059,-4.62576 2.75172,-2.72741 4.30468,-4.99298 6.3215,-9.22223 2.51594,-5.27592 4.20161,-10.94828 5.59711,-18.83455 0.73937,-4.17834 0.7491,-4.37081 0.74911,-14.816671 1e-5,-11.28765 -0.0334,-11.69312 -1.45971,-17.72708 -2.67388,-11.31162 -7.32205,-18.26806 -14.45594,-21.63473 l -1.81142,-0.85486 -4.49792,0.0224 c -3.9797,0.0198 -4.74061,0.0969 -6.60439,0.66879 -1.75027,0.53708 -2.13728,0.75699 -2.28873,1.30051 -0.27917,1.00192 -0.26144,52.417511 0.0231,67.064551 0.28341,14.58771 0.43572,17.62161 0.91776,18.28083 0.71769,0.98151 6.54044,1.20705 9.77892,0.37879 z m 105.72644,8.70495 c -6.70287,-0.56091 -14.8679,-3.3784 -21.03437,-7.25828 -10.3691,-6.52413 -17.74175,-16.68067 -21.44299,-29.53979 -1.27665,-4.43544 -1.70672,-7.41021 -1.95677,-13.534951 -0.36413,-8.919 0.15598,-14.90313 1.8508,-21.29445 5.81706,-21.93674 21.5049,-35.89067 43.22152,-38.44444 3.96609,-0.46639 12.81157,-0.16508 16.16286,0.55058 7.57587,1.6178 13.72294,4.87068 18.77875,9.93725 7.10993,7.12507 11.35507,17.1298 12.96176,30.54763 0.23678,1.97747 0.39341,4.93007 0.35088,6.61458 l -0.0768,3.04271 -30.93151,0.0673 -30.93151,0.0673 0.17357,4.16608 c 0.27696,6.64779 1.27035,11.908081 3.25013,17.210351 1.94753,5.2159 3.82794,8.26824 7.31567,11.87504 3.15789,3.26571 6.02841,5.41869 9.31948,6.9899 4.92498,2.35128 8.84222,3.01686 16.52791,2.80826 7.40259,-0.20091 10.75348,-1.13589 16.80959,-4.69029 3.56822,-2.09423 4.07661,-2.28693 4.88791,-1.85273 0.72465,0.38782 2.12355,2.57319 2.12355,3.31741 0,2.08661 -8.07714,9.65429 -13.91198,13.03449 -5.63172,3.26253 -13.69683,5.84275 -20.00953,6.40153 -3.40823,0.30169 -9.73649,0.29444 -13.43891,-0.0154 z m 6.08542,-68.528011 c 6.18464,-0.15965 11.27253,-0.31748 11.30642,-0.35074 0.14001,-0.13738 -0.50799,-9.26465 -0.87528,-12.32854 -1.07891,-9.00029 -3.21431,-15.20879 -6.32792,-18.39795 -2.20198,-2.25541 -4.35966,-2.99681 -7.19574,-2.47253 -6.88725,1.27318 -12.26614,10.23304 -14.87931,24.78513 -0.60888,3.39073 -1.1833,8.66578 -0.97954,8.99547 0.14527,0.23505 1.58139,0.21756 18.95137,-0.23084 z m 70.34876,68.017621 c -7.47385,-1.21278 -15.51374,-3.14255 -18.93097,-4.54389 l -1.89576,-0.77742 -0.15199,-2.16748 c -0.0836,-1.19211 -0.2871,-8.22349 -0.45223,-15.62529 -0.25355,-11.36532 -0.24369,-13.49442 0.0634,-13.6932 0.72534,-0.46953 3.00115,-1.02711 4.19227,-1.02711 h 1.21909 l 1.4297,3.50573 c 4.80951,11.79321 10.21824,18.82032 17.06953,22.177 3.40927,1.67032 4.89431,1.95906 10.0551,1.95505 4.2436,-0.003 4.59809,-0.0432 6.2697,-0.70657 2.36777,-0.9396 4.28226,-2.19825 5.98372,-3.93391 3.95847,-4.03805 5.18859,-11.46547 2.7571,-16.6473 -0.81878,-1.74492 -3.44874,-4.45053 -5.8824,-6.05159 -2.58227,-1.69883 -8.40677,-4.44706 -15.21354,-7.17833 -6.81442,-2.734351 -11.9159,-5.240101 -14.2875,-7.017761 -4.47273,-3.35258 -8.391,-8.29154 -9.92733,-12.51334 -2.83504,-7.79065 -2.53793,-17.72839 0.73909,-24.72137 3.92466,-8.37501 11.28222,-14.89824 20.45384,-18.13443 5.33442,-1.88224 11.31321,-2.78317 18.36773,-2.76779 7.34743,0.016 14.92552,0.95167 21.82712,2.69493 3.24972,0.82085 7.34426,2.22188 8.01975,2.74413 0.35381,0.27355 0.45605,2.21088 0.73972,14.01663 0.20114,8.37115 0.23414,13.78667 0.0848,13.92409 -0.43981,0.40481 -3.28915,1.34857 -4.07151,1.34857 -1.08134,0 -1.58897,-0.76752 -3.19643,-4.83291 -4.20628,-10.63799 -8.70735,-16.43882 -14.95276,-19.27063 -6.76246,-3.06625 -13.60626,-2.35862 -17.80597,1.84109 -2.64865,2.64865 -3.88044,5.50089 -4.1642,9.6423 -0.30671,4.47629 0.58282,7.06661 3.51387,10.23241 3.19084,3.44641 9.07549,6.82343 20.05975,11.51168 9.07412,3.87298 14.24947,6.91183 18.16209,10.66438 3.60379,3.45637 5.77583,7.13447 7.15622,12.118211 0.52197,1.88453 0.57875,2.71023 0.5714,8.31014 -0.009,6.88212 -0.26952,8.60151 -1.94693,12.85025 -1.9054,4.82626 -4.18883,8.24959 -7.85911,11.78243 -4.8056,4.62563 -10.29953,7.49584 -18.56042,9.69656 l -3.60867,0.96136 -11.37708,0.066 c -10.08692,0.0585 -11.72558,0.009 -14.4502,-0.43265 z m -523.73459,-2.15171 c -0.28673,-0.46393 -0.46403,-3.76981 -0.2604,-4.85525 0.23234,-1.2385 0.77456,-1.47271 5.85602,-2.52945 5.72379,-1.19031 7.37215,-1.98968 9.42416,-4.57021 3.87602,-4.87437 4.9345,-11.80236 5.5388,-36.252841 0.33873,-13.70518 0.15495,-55.28041 -0.27795,-62.88119 -0.69316,-12.17016 -1.79358,-17.69721 -4.36688,-21.93332 -2.2986,-3.78391 -5.33875,-5.2474 -12.9369,-6.22769 -1.57645,-0.20339 -2.90347,-0.40951 -2.94892,-0.45804 -0.0454,-0.0485 -0.16792,-1.58874 -0.27215,-3.42269 l -0.18952,-3.33445 0.8564,-0.17128 c 0.47102,-0.0942 27.08091,-0.17128 59.13309,-0.17128 h 58.276693 l 0.158804,0.59531 c 0.174449,0.65397 0.582593,16.21 0.82919,31.60378 l 0.157658,9.84179 -2.195613,0.68834 c -2.935775,0.9204 -4.74376,1.11921 -5.282123,0.58085 -0.225364,-0.22536 -0.718127,-1.1624 -1.09503,-2.0823 -0.376903,-0.91991 -1.298431,-3.16084 -2.047842,-4.97985 -4.873508,-11.82925 -10.437626,-18.60363 -18.176835,-22.1305 -4.773766,-2.17548 -7.578076,-2.4704 -23.519462,-2.47349 l -11.67778,-0.002 -0.1611,1.12448 c -0.47333,3.30375 -1.21493,31.89609 -1.21918,47.00568 l -0.003,9.63329 7.07761,-0.17895 c 10.58944,-0.26775 12.69206,-0.62444 15.75065,-2.67195 3.38838,-2.26829 6.07269,-6.8163 7.736786,-13.10838 0.51957,-1.96453 1.04125,-3.75047 1.15928,-3.96875 0.16984,-0.31407 0.912836,-0.41233 3.561072,-0.47094 l 3.346457,-0.0741 -0.06749,25.07719 -0.06749,25.07718 -3.307292,-0.0968 c -1.81901,-0.0533 -3.343618,-0.12929 -3.388028,-0.16893 -0.0444,-0.0396 -0.48919,-1.64821 -0.98841,-3.57459 -0.95858,-3.69895 -2.148445,-6.73238 -3.605905,-9.19297 -1.18428,-1.99936 -4.03314,-4.8598 -5.57059,-5.59321 -2.21495,-1.05661 -6.46273,-1.53373 -17.90836,-2.01154 l -3.81234,-0.15914 0.16767,12.11841 c 0.41327,29.868564 1.7267,39.452464 6.1614,44.958694 1.84311,2.28845 3.7566,3.08206 10.09053,4.18501 5.38602,0.93789 5.84518,1.08466 6.08201,1.94409 0.33788,1.2261 0.22645,4.71115 -0.16574,5.18371 -0.32549,0.3922 -3.60241,0.4292 -38.01132,0.4292 -27.82978,0 -37.70359,-0.0785 -37.84092,-0.30065 z m 206.383304,-0.148 c -0.379903,-0.37991 -0.429483,-0.84679 -0.323548,-3.04674 0.06881,-1.42895 0.181936,-2.65492 0.251394,-2.72438 0.06946,-0.0694 1.605535,-0.42658 3.413503,-0.79361 3.824275,-0.77635 5.634496,-1.57372 6.997293,-3.08217 3.427997,-3.79438 3.913295,-8.9911 3.924744,-42.027371 0.01043,-30.08339 -0.43173,-34.49829 -3.827103,-38.21337 -1.548324,-1.69411 -2.319604,-2.02549 -6.824178,-2.93197 -1.804574,-0.36314 -3.441684,-0.79358 -3.638021,-0.95652 -0.428299,-0.35546 -0.492963,-3.45175 -0.08789,-4.20863 0.147995,-0.27653 0.770653,-0.63785 1.383683,-0.80292 2.530182,-0.6813 39.78894,-8.12915 42.839919,-8.56349 0.678321,-0.0966 1.289333,-0.0806 1.357805,0.0356 0.06847,0.11612 -0.04259,4.67598 -0.246803,10.13301 -0.204213,5.45703 -0.338975,10.25883 -0.299471,10.67066 0.06192,0.6455 0.290806,0.36209 1.659325,-2.05462 4.562236,-8.05659 9.865571,-13.41352 16.394244,-16.55993 3.974933,-1.91567 5.93756,-2.39593 10.460965,-2.55986 4.215155,-0.15275 7.473745,0.2511 10.172065,1.26067 1.60421,0.60021 3.0571,1.66678 3.0571,2.24421 0,0.80863 -6.29624,17.84171 -9.31105,25.18897 -0.81384,1.98337 -1.47468,3.24115 -1.702917,3.24115 -0.205137,0 -1.966189,-0.70579 -3.913449,-1.56841 -6.032159,-2.67222 -9.046045,-3.34251 -14.018563,-3.11775 -1.760492,0.0796 -3.974801,0.34665 -4.920686,0.59349 -2.496716,0.65155 -5.815623,2.2886 -6.847557,3.37756 -0.829174,0.87499 -0.912258,1.12373 -1.13876,3.40917 -0.35292,3.56102 -0.340441,35.483791 0.01674,42.814271 0.689627,14.15348 1.378132,17.81169 3.874974,20.58878 0.687116,0.76423 1.689646,1.52268 2.433174,1.84078 1.325267,0.56697 5.257767,1.25409 9.069766,1.58474 l 2.248958,0.19508 0.07429,3.24115 0.07429,3.24114 H 55.405085 c -28.866011,0 -31.109717,-0.0319 -31.526441,-0.44865 z"
       id="path1" /></g></svg>
