<?xml version="1.0" encoding="UTF-8" standalone="no"?>
<!-- Created with Inkscape (http://www.inkscape.org/) -->

<svg
   width="28.568308mm"
   height="28.706322mm"
   viewBox="0 0 28.568308 28.706323"
   version="1.1"
   id="svg1"
   xml:space="preserve"
   xmlns="http://www.w3.org/2000/svg"
   xmlns:svg="http://www.w3.org/2000/svg"><defs
     id="defs1"><style
       id="style1">
      .st0 {
        fill: #005c99;
      }
    </style></defs><rect
     style="fill:#ffffff;fill-opacity:1;stroke:#670086;stroke-width:0;stroke-linecap:butt;stroke-miterlimit:10;stroke-dasharray:none"
     id="rect2"
     width="28.568308"
     height="28.70632"
     x="7.5565915e-11"
     y="6.6120771e-09"
     ry="4.4258265"
     rx="4.8453827" /><!-- Generator: Adobe Illustrator 30.1.0, SVG Export Plug-In . SVG Version: 2.1.1 Build 136)  --><g
     id="g3"
     transform="matrix(1.0560599,0,0,1.0560599,11.295128,8.7628109)"><g
       id="layer1"
       transform="matrix(1.2020634,0,0,1.2020634,-278.7931,-11.868745)" /><rect
       x="-8.6333981"
       y="-3.1574667"
       width="3.6034606"
       height="16.967752"
       rx="0.22581261"
       ry="0.22581263"
       id="rect1"
       style="stroke-width:0.318046" /><path
       d="m -1.1116034,5.6460458 8.0910889,7.7984872 c 0.1367588,0.133579 0.044476,0.365752 -0.1463031,0.365752 H 2.7303836 c -0.1590209,0 -0.311683,-0.06361 -0.4229941,-0.178105 L -5.456113,5.7828058 1.6617493,-2.648593 C 1.7761857,-2.7821723 1.9416377,-2.8616837 2.116562,-2.8616837 h 3.8101924 c 0.1812832,0 0.2798764,0.2162713 0.159021,0.353031 z"
       id="path1"
       style="stroke-width:0.318046" /><path
       class="st0"
       d="M 8.5760661,7.9486981 14.27863,13.444533 c 0.136759,0.133579 0.04448,0.365752 -0.146291,0.365752 h -4.102798 c -0.1590209,0 -0.3116829,-0.06361 -0.423006,-0.178105 L 1.8080524,5.7446403 C 1.6712936,5.6046997 1.769947,5.3693453 1.9638999,5.3693453 h 4.4494618 c 1.5488828,0 2.9991723,-1.2531007 3.1041244,-2.798804 C 9.6033135,1.3078987 8.9100234,0.19791819 7.8731956,-0.33003792 7.6855415,-0.42545171 7.6314727,-0.66398617 7.7713808,-0.82300906 8.2198226,-1.3318827 9.0690083,-2.2923814 9.4156714,-2.6835779 c 0.092198,-0.1017751 0.2385374,-0.1367599 0.3625783,-0.079512 1.9623443,0.8905287 3.3235853,2.86559412 3.3235853,5.1587055 0,2.7351955 -1.940082,5.018765 -4.5226195,5.5467221"
       id="path2"
       style="stroke-width:0.318046" /></g></svg>
